<?xml version="1.0" standalone="no"?>
<!DOCTYPE svg PUBLIC "-//W3C//DTD SVG 20010904//EN"
 "http://www.w3.org/TR/2001/REC-SVG-20010904/DTD/svg10.dtd">
<svg version="1.0" xmlns="http://www.w3.org/2000/svg"
 width="460.000000pt" height="460.000000pt" viewBox="0 0 460.000000 460.000000"
 preserveAspectRatio="xMidYMid meet">

<g transform="translate(0.000000,460.000000) scale(0.100000,-0.100000)"
fill="#000000" stroke="none">
<path d="M0 2300 l0 -2300 2300 0 2300 0 0 2300 0 2300 -2300 0 -2300 0 0
-2300z m2093 624 c145 -16 237 -15 506 7 150 12 244 0 330 -41 107 -52 158
-153 181 -360 6 -52 17 -117 24 -145 7 -27 9 -52 5 -53 -5 -2 -40 2 -79 8 -61
10 -71 15 -88 43 -10 18 -37 45 -60 61 -41 28 -44 29 -140 23 -58 -4 -127 -16
-172 -30 -66 -21 -75 -27 -78 -50 -2 -14 2 -35 8 -47 9 -17 8 -20 -7 -21 -16
0 -16 -1 2 -10 15 -7 10 -8 -18 -3 -22 3 -37 1 -34 -3 7 -12 -37 -15 -175 -15
-162 0 -193 3 -177 14 10 7 4 8 -18 4 -34 -6 -52 16 -32 40 6 7 9 25 7 39 -3
23 -13 30 -78 52 -62 22 -94 27 -180 27 -105 1 -106 1 -149 -33 -23 -19 -46
-44 -51 -56 -9 -23 -19 -26 -123 -41 -37 -5 -46 -4 -43 7 15 47 35 155 41 219
13 148 72 272 152 320 105 62 201 72 446 44z m-194 -566 c57 -13 59 -24 4 -26
-29 0 -33 2 -18 8 13 6 -12 9 -72 9 -55 1 -93 5 -93 11 0 14 117 13 179 -2z
m986 2 c4 -6 -24 -10 -77 -10 -46 0 -101 -2 -123 -5 -37 -4 -37 -3 10 9 59 17
181 20 190 6z m-870 -40 c27 -7 27 -8 5 -8 -14 0 -36 4 -50 8 -20 6 -21 8 -5
8 11 0 34 -4 50 -8z m632 4 c-3 -3 -12 -4 -19 -1 -8 3 -5 6 6 6 11 1 17 -2 13
-5z m-40 -10 c-3 -3 -12 -4 -19 -1 -8 3 -5 6 6 6 11 1 17 -2 13 -5z m-712 -54
c102 -12 177 -34 197 -57 11 -14 10 -16 -9 -11 -13 4 -23 3 -23 -1 0 -4 -12
-6 -27 -5 -16 2 -64 7 -107 12 -44 6 -92 6 -107 2 -15 -5 -30 -6 -33 -3 -3 3
-34 0 -68 -7 -66 -14 -128 -45 -128 -63 0 -6 -3 -8 -6 -4 -3 3 -16 -5 -29 -19
-30 -33 -35 -31 -35 16 0 46 19 99 43 119 34 28 185 37 332 21z m1066 0 c77
-15 108 -49 116 -125 l6 -58 -56 46 c-60 49 -110 67 -187 70 -27 1 -46 5 -44
8 4 7 -103 1 -188 -10 -32 -4 -58 -4 -58 0 0 5 -11 4 -25 -1 -29 -11 -33 0 -7
23 45 41 319 70 443 47z m-1599 -92 c27 -13 28 -15 28 -103 -1 -81 -2 -88 -15
-71 -8 11 -15 26 -15 33 0 7 -4 13 -9 13 -5 0 -13 9 -16 20 -7 23 -52 56 -62
47 -3 -4 15 -29 40 -56 54 -57 72 -113 83 -243 l6 -88 45 0 46 0 -7 33 c-4 17
-10 43 -12 56 -3 14 -7 29 -10 35 -3 6 2 2 10 -8 9 -11 16 -25 16 -31 0 -5 11
-23 25 -38 14 -15 22 -28 18 -28 -4 -1 6 -5 22 -9 17 -4 132 -8 256 -9 214 -1
228 0 253 20 14 11 31 17 37 14 5 -4 10 -1 9 6 -3 23 12 59 21 53 5 -3 9 1 9
8 0 8 8 25 18 38 9 14 22 43 28 65 19 65 38 109 55 125 9 8 14 21 12 28 -5 13
53 17 93 6 21 -6 48 -55 66 -122 17 -66 61 -156 95 -199 l34 -43 227 0 c125 0
243 4 262 10 25 7 36 7 41 -2 6 -9 10 -6 14 7 27 82 55 130 41 71 -22 -90 -23
-86 22 -86 23 0 43 4 46 9 4 5 9 51 12 103 3 51 11 103 17 116 8 17 8 25 -1
34 -7 7 -12 44 -12 93 l0 80 39 19 c50 23 77 11 87 -41 14 -73 -9 -288 -42
-394 -4 -14 6 -17 69 -21 107 -5 112 -12 111 -152 -2 -128 -51 -1094 -60
-1176 -4 -30 -9 -49 -11 -42 -4 10 -10 9 -25 -5 -19 -17 -44 -18 -342 -16
-176 1 -658 2 -1069 2 -496 1 -746 4 -742 11 3 6 0 10 -8 10 -31 0 -42 32 -44
129 -2 53 -10 209 -18 346 -16 278 -31 540 -41 717 l-6 117 30 31 c28 28 36
30 102 30 65 0 71 2 65 18 -29 75 -53 304 -41 386 6 35 13 49 29 56 23 9 27 9
69 -12z m326 -51 c-24 -30 -46 -52 -50 -50 -5 2 -8 -9 -8 -25 l0 -29 48 44 47
44 6 -48 c8 -64 15 -77 54 -107 29 -22 44 -26 102 -26 62 1 65 2 40 13 l-27
12 39 22 40 23 -4 -22 -5 -22 21 21 c27 26 36 101 19 143 -7 17 -11 33 -8 35
8 9 59 -36 79 -69 16 -27 19 -28 19 -10 0 12 -10 33 -21 48 -12 15 -19 30 -15
33 3 4 6 1 6 -6 0 -7 5 -9 10 -6 6 3 10 0 10 -7 0 -9 3 -9 10 2 8 12 10 12 11
-5 l0 -20 9 20 c14 34 12 -63 -4 -120 -17 -65 -58 -145 -96 -189 -43 -49 -98
-67 -196 -67 -135 1 -251 58 -273 136 -17 61 32 227 61 209 8 -5 9 -1 5 10 -4
9 -3 15 2 11 5 -3 11 -2 13 2 2 6 81 49 96 52 1 1 -17 -23 -40 -52z m163 17
c17 -21 0 -49 -32 -49 -18 0 -25 6 -27 24 -6 38 34 55 59 25z m827 7 c21 -13
11 -55 -14 -59 -26 -4 -38 22 -24 49 12 21 18 23 38 10z m325 -52 c27 -27 47
-49 44 -49 -3 0 1 -19 8 -42 23 -80 -16 -170 -90 -206 -63 -32 -114 -42 -203
-42 -92 0 -136 16 -184 67 -26 28 -74 124 -97 194 -15 48 -15 103 1 93 8 -5 9
-1 5 12 -7 18 -7 18 7 0 11 -13 12 -25 5 -43 -16 -42 -9 -50 11 -11 19 34 63
78 81 78 4 0 3 -14 -3 -31 -18 -52 -5 -116 33 -155 31 -32 36 -34 98 -33 37 1
56 4 44 6 -32 6 -29 17 12 38 38 21 56 15 34 -11 -13 -16 -12 -16 8 -5 31 16
46 47 53 105 l5 49 48 -45 c26 -25 47 -39 47 -32 0 19 -22 64 -31 64 -5 0 -16
14 -24 30 l-16 31 28 -7 c15 -3 50 -28 76 -55z m-480 36 c-3 -9 -8 -14 -10
-11 -3 3 -2 9 2 15 9 16 15 13 8 -4z m-952 -312 c13 -16 12 -17 -3 -4 -10 7
-18 15 -18 17 0 8 8 3 21 -13z"/>
<path d="M3320 2112 c0 -4 -10 -12 -22 -17 -12 -6 -26 -19 -32 -30 -6 -11 -14
-22 -17 -25 -3 -3 -8 -13 -12 -22 -10 -28 8 -21 23 8 8 14 27 32 42 40 16 8
28 23 28 34 0 11 -2 20 -5 20 -3 0 -5 -3 -5 -8z"/>
<path d="M1181 504 c0 -11 3 -14 6 -6 3 7 2 16 -1 19 -3 4 -6 -2 -5 -13z"/>
</g>
</svg>
